<svg width="185" height="179" viewBox="0 0 185 179" fill="none" xmlns="http://www.w3.org/2000/svg">
<path d="M55.8349 12.5039V12.5717L46.2695 18.8016L55.8349 12.5039Z" fill="url(#paint0_linear_5062_2954)"/>
<path d="M185 87.3289V135.875L146.574 160.876L118.571 178.999L75.6309 152.5L108.453 130.89L120.689 138.476L120.796 138.544L152.178 118.105V108.935L113.829 84.9116L146.646 63.3008L152.178 66.7694L185 87.3289Z" fill="url(#paint1_linear_5062_2954)"/>
<path d="M158.02 0L157.816 39.2734L102.504 75.2914V118.15L69.6816 139.76V57.6046L158.02 0Z" fill="url(#paint2_linear_5062_2954)"/>
<path d="M55.836 12.5703V178.999L23.0141 157.388V73.0912L0 88.0749L0.198774 48.8015L46.2706 18.8002L55.836 12.5703Z" fill="url(#paint3_linear_5062_2954)"/>
<defs>
<linearGradient id="paint0_linear_5062_2954" x1="51.0522" y1="12.5039" x2="51.0522" y2="18.8016" gradientUnits="userSpaceOnUse">
<stop stop-color="#FF3C5A"/>
<stop offset="1" stop-color="#F20025"/>
</linearGradient>
<linearGradient id="paint1_linear_5062_2954" x1="130.315" y1="63.3008" x2="130.315" y2="178.999" gradientUnits="userSpaceOnUse">
<stop stop-color="#FF3C5A"/>
<stop offset="1" stop-color="#F20025"/>
</linearGradient>
<linearGradient id="paint2_linear_5062_2954" x1="113.851" y1="0" x2="113.851" y2="139.76" gradientUnits="userSpaceOnUse">
<stop stop-color="#FF3C5A"/>
<stop offset="1" stop-color="#F20025"/>
</linearGradient>
<linearGradient id="paint3_linear_5062_2954" x1="27.918" y1="12.5703" x2="27.918" y2="178.999" gradientUnits="userSpaceOnUse">
<stop stop-color="#FF3C5A"/>
<stop offset="1" stop-color="#F20025"/>
</linearGradient>
</defs>
</svg>
