<svg width="540" height="180" viewBox="0 0 540 180" fill="none" xmlns="http://www.w3.org/2000/svg">
<g clip-path="url(#clip0_6889_1503)">
<path d="M54.8359 13.5039V13.5717L45.2705 19.8016L54.8359 13.5039Z" fill="url(#paint0_linear_6889_1503)"/>
<path d="M184 88.3289V136.875L145.574 161.876L117.571 179.999L74.6309 153.5L107.453 131.89L119.689 139.476L119.796 139.544L151.178 119.105V109.935L112.829 85.9116L145.646 64.3008L151.178 67.7694L184 88.3289Z" fill="url(#paint1_linear_6889_1503)"/>
<path d="M157.02 1L156.816 40.2734L101.504 76.2914V119.15L68.6821 140.76V58.6046L157.02 1Z" fill="url(#paint2_linear_6889_1503)"/>
<path d="M54.836 13.5703V179.999L22.0141 158.388V74.0912L-1 89.0749L-0.801226 49.8015L45.2706 19.8002L54.836 13.5703Z" fill="url(#paint3_linear_6889_1503)"/>
<path d="M454.623 135V113.94H510.913L514.423 110.43V103.41L510.913 99.9H469.573L452.803 83.13V59.86L468.663 44H535.223V65.06H481.663L478.153 68.57V75.2L481.663 78.84H523.003L539.773 95.61V119.14L523.913 135H454.623Z" fill="url(#paint4_linear_6889_1503)"/>
<path d="M319.482 135V44H356.922L375.772 94.05H378.762L397.612 44H434.532V135H410.092V73.51H407.752L388.642 123.56H365.372L346.262 73.51H343.922V135H319.482Z" fill="url(#paint5_linear_6889_1503)"/>
<path d="M247.67 135V65.06H214V44H306.69V65.06H273.02V135H247.67Z" fill="url(#paint6_linear_6889_1503)"/>
</g>
<defs>
<linearGradient id="paint0_linear_6889_1503" x1="50.0532" y1="13.5039" x2="50.0532" y2="19.8016" gradientUnits="userSpaceOnUse">
<stop stop-color="#FF3C5A"/>
<stop offset="1" stop-color="#F20025"/>
</linearGradient>
<linearGradient id="paint1_linear_6889_1503" x1="129.315" y1="64.3008" x2="129.315" y2="179.999" gradientUnits="userSpaceOnUse">
<stop stop-color="#FF3C5A"/>
<stop offset="1" stop-color="#F20025"/>
</linearGradient>
<linearGradient id="paint2_linear_6889_1503" x1="112.851" y1="1" x2="112.851" y2="140.76" gradientUnits="userSpaceOnUse">
<stop stop-color="#FF3C5A"/>
<stop offset="1" stop-color="#F20025"/>
</linearGradient>
<linearGradient id="paint3_linear_6889_1503" x1="26.918" y1="13.5703" x2="26.918" y2="179.999" gradientUnits="userSpaceOnUse">
<stop stop-color="#FF3C5A"/>
<stop offset="1" stop-color="#F20025"/>
</linearGradient>
<linearGradient id="paint4_linear_6889_1503" x1="452.803" y1="89.5" x2="539.773" y2="89.5" gradientUnits="userSpaceOnUse">
<stop stop-color="#010612"/>
<stop offset="1" stop-color="#0F131F"/>
</linearGradient>
<linearGradient id="paint5_linear_6889_1503" x1="319.482" y1="89.5" x2="434.532" y2="89.5" gradientUnits="userSpaceOnUse">
<stop stop-color="#010612"/>
<stop offset="1" stop-color="#0F131F"/>
</linearGradient>
<linearGradient id="paint6_linear_6889_1503" x1="214" y1="89.5" x2="306.69" y2="89.5" gradientUnits="userSpaceOnUse">
<stop stop-color="#010612"/>
<stop offset="1" stop-color="#0F131F"/>
</linearGradient>
<clipPath id="clip0_6889_1503">
<rect width="540" height="180" fill="white"/>
</clipPath>
</defs>
</svg>
